<svg width="70" height="70" viewBox="0 0 70 70" fill="none" xmlns="http://www.w3.org/2000/svg">
<g clip-path="url(#clip0_56_625)">
<path d="M34.9999 38.2792C36.811 38.2792 38.2791 36.811 38.2791 35C38.2791 33.1889 36.811 31.7208 34.9999 31.7208C33.1889 31.7208 31.7207 33.1889 31.7207 35C31.7207 36.811 33.1889 38.2792 34.9999 38.2792Z" fill="white"/>
<path d="M35 0C15.6558 0 0 15.6539 0 35C0 54.3443 15.6539 70 35 70C54.3442 70 70 54.3461 70 35C70 15.6557 54.3461 0 35 0ZM9.71359 26.3472C8.76353 29.1241 8.28201 32.0354 8.28201 35C8.28201 36.2391 7.27754 37.2436 6.03846 37.2436C4.79938 37.2436 3.79477 36.2391 3.79477 35C3.79477 31.5399 4.35764 28.1401 5.46807 24.8946C5.86906 23.7222 7.14437 23.0963 8.31715 23.4981C9.48965 23.8993 10.1149 25.1748 9.71359 26.3472ZM53.7808 35C53.7808 33.7609 54.7853 32.7564 56.0245 32.7564C57.2637 32.7564 58.268 33.7609 58.268 35C58.268 47.8298 47.8301 58.268 35 58.268C33.7609 58.268 32.7564 57.2636 32.7564 56.0243C32.7564 54.7853 33.7609 53.7808 35 53.7808C45.3558 53.7808 53.7808 45.3558 53.7808 35ZM11.2539 14.7535C17.1972 7.78914 25.8524 3.79477 35 3.79477C36.2391 3.79477 37.2436 4.79924 37.2436 6.03832C37.2436 7.2774 36.2391 8.28201 35 8.28201C27.1677 8.28201 19.7567 11.7026 14.6672 17.6664C13.863 18.6088 12.4469 18.721 11.5041 17.9166C10.5615 17.1123 10.4496 15.696 11.2539 14.7535ZM16.2192 35C16.2192 36.2391 15.2147 37.2436 13.9757 37.2436C12.7366 37.2436 11.732 36.2391 11.732 35C11.732 22.1702 22.1699 11.732 35 11.732C36.2391 11.732 37.2436 12.7364 37.2436 13.9755C37.2436 15.2146 36.2391 16.2192 35 16.2192C24.6442 16.2192 16.2192 24.6442 16.2192 35ZM22.2861 35C22.2861 27.9783 27.9783 22.2861 35 22.2861C42.0217 22.2861 47.7139 27.9783 47.7139 35C47.7139 42.0217 42.0217 47.7139 35 47.7139C27.9783 47.7139 22.2861 42.0217 22.2861 35ZM42.9181 65.1912C40.3463 65.864 37.6823 66.2051 35 66.2051C33.7609 66.2051 32.7564 65.2006 32.7564 63.9615C32.7564 62.7225 33.7609 61.7179 35 61.7179C37.2992 61.7179 39.581 61.426 41.7823 60.8498C42.9804 60.5359 44.2072 61.2538 44.5207 62.4524C44.8345 63.6516 44.1168 64.8776 42.9181 65.1912ZM51.6298 61.4094C50.5827 62.07 49.1969 61.7579 48.5352 60.709C47.874 59.6612 48.1875 58.2755 49.2354 57.6144C57.0516 52.6831 61.718 44.2291 61.718 35.0001C61.718 33.7611 62.7225 32.7566 63.9617 32.7566C65.2008 32.7566 66.2052 33.7611 66.2052 35.0001C66.2052 40.3655 64.8203 45.658 62.1998 50.3055C59.6608 54.8088 56.0056 58.6484 51.6298 61.4094Z" fill="white"/>
</g>
<defs>
<clipPath id="clip0_56_625">
<rect width="70" height="70" fill="white"/>
</clipPath>
</defs>
</svg>
